<svg width="75" height="41" viewBox="0 0 75 41" fill="none" xmlns="http://www.w3.org/2000/svg">
<path fill-rule="evenodd" clip-rule="evenodd" d="M5.58412 36.296L18.1393 30.8065L14.88 27.8529L5.58412 36.296ZM10.2507 6.78001L2.39186 13.9203L1.91948 13.4902V8.36123L2.39186 8.79133L6.42942 5.11675L10.2507 6.78001ZM1.91948 32.6935V37.8946L3.5728 37.1761L14.88 26.9082L18.8504 30.5032L22.6667 28.8349L14.88 21.7717L2.39186 33.1162L1.91948 32.6935ZM14.778 8.76398L2.39186 19.9941L1.91948 19.5739V14.4399L2.39186 14.8651L10.9592 7.09079L14.778 8.76398ZM25.3617 18.1767V13.3883L15.1783 8.94299L25.3617 18.1767ZM25.3617 24.2529V19.1289L14.88 9.61675L2.39186 20.9513L1.91948 20.5286V25.6551L2.39186 26.0778L14.88 14.7457L25.3617 24.2529ZM25.3617 27.659V25.2026L14.88 15.688L2.39186 27.0275L1.91948 26.6098V31.7413L2.39186 32.159L14.88 20.8195L23.3628 28.5291L25.3617 27.659ZM74.8691 0.430302V40.6021L49.9923 29.7474V31.254H25.3617V29.5982L0.144348 40.6021V0.430302L25.3617 11.4341V10.0195H49.9923V11.2899L74.8691 0.430302ZM69.4343 36.296L60.126 27.8529L56.8666 30.8065L69.4343 36.296ZM64.7603 6.78001L72.6166 13.9203L73.0865 13.4902V8.36123L72.6166 8.79133L68.5766 5.11675L64.7603 6.78001ZM73.0865 32.6935L72.6166 33.1162L60.126 21.7717L52.3467 28.8349L56.1655 30.5032L60.126 26.9082L71.4406 37.1761L73.0865 37.8946V32.6935ZM51.6432 28.5291L49.9923 27.8007V24.8894L60.126 15.688L72.6166 27.0275L73.0865 26.6098V31.7413L72.6166 32.159L60.126 20.8195L51.6432 28.5291ZM60.2329 8.76398L72.6166 19.9941L73.0865 19.5739V14.4399L72.6166 14.8651L64.0517 7.09079L60.2329 8.76398ZM49.9923 23.9446V18.8082L60.126 9.61675L72.6166 20.9513L73.0865 20.5286V25.6551L72.6166 26.0778L60.126 14.7457L49.9923 23.9446ZM49.9923 17.8634L59.8302 8.94299L49.9923 13.2267V17.8634ZM73.0865 3.15018V7.41896L72.6166 7.83913L69.2727 4.80598L73.0865 3.15018ZM1.91948 3.15018V7.41896L2.39186 7.83913L5.73826 4.80598L1.91948 3.15018Z" fill="#CFA177"/>
</svg>
