<?xml version="1.0" encoding="UTF-8"?>
<svg version="1.1" xmlns="http://www.w3.org/2000/svg" width="1500" height="1500">
<path d="M0 0 C2.47584065 2.16825922 4.77409317 4.41390575 7.046875 6.79296875 C7.76359375 7.50195312 8.4803125 8.2109375 9.21875 8.94140625 C20.23557031 20.41380936 25.4770242 36.16454405 25.26171875 51.9296875 C24.49038404 62.20947557 21.3210323 71.49503271 17.046875 80.79296875 C16.29511 82.45884004 15.54495164 84.12543791 14.796875 85.79296875 C14.48234375 86.47359375 14.1678125 87.15421875 13.84375 87.85546875 C11.07845825 94.57892319 11.60862993 101.78152402 13.046875 108.79296875 C6.5220718 106.63319069 2.13086294 101.66221597 -1.09765625 95.66796875 C-3.83037779 88.77558734 -4.04980594 81.68061666 -4.24316406 74.35449219 C-4.82125043 53.09819004 -8.99469497 32.84689295 -23.921875 16.67578125 C-31.65717354 9.50575452 -41.08186751 4.62044804 -51.8046875 4.85546875 C-60.87778701 6.08225404 -69.03152797 10.56572041 -74.70703125 17.80078125 C-80.74409982 27.45252098 -82.32625926 38.25727409 -80.3046875 49.3515625 C-77.03192603 62.79226236 -71.29351602 74.45311955 -61.953125 84.79296875 C-61.08300781 85.78490234 -61.08300781 85.78490234 -60.1953125 86.796875 C-56.26384394 91.00916274 -51.85608302 94.46924413 -47.2109375 97.85546875 C-46.2303109 98.57209938 -46.2303109 98.57209938 -45.22987366 99.3032074 C-37.76739685 104.71333012 -30.08870915 109.78931529 -22.390625 114.85546875 C-13.14247946 120.94978977 -3.98522654 127.12416145 4.9987793 133.6027832 C8.68225968 136.24951949 12.41729138 138.81134067 16.171875 141.35546875 C46.50869499 162.09426105 69.42088201 183.00335318 80.046875 218.79296875 C80.28696289 218.11645264 80.52705078 217.43993652 80.77441406 216.74291992 C89.08353923 193.47463362 98.459174 170.644391 110.046875 148.79296875 C110.40346191 148.11169922 110.76004883 147.43042969 111.12744141 146.72851562 C122.58346432 124.97845912 122.58346432 124.97845912 131.046875 121.79296875 C133.73828125 121.45703125 133.73828125 121.45703125 136.609375 121.41796875 C137.55941406 121.38960937 138.50945312 121.36125 139.48828125 121.33203125 C142.046875 121.79296875 142.046875 121.79296875 144.07421875 123.25390625 C145.43910111 126.81685218 144.51120708 128.79831685 143.17382812 132.28515625 C141.15504307 136.77756527 138.7333826 141.01691803 136.296875 145.29296875 C98.33756588 212.64153456 98.33756588 212.64153456 91.3046875 285.890625 C92.00805034 288.02009992 92.00805034 288.02009992 94.109375 290.10546875 C98.85217108 291.21548485 101.98682911 289.21836441 106.046875 286.79296875 C111.97379194 282.75519171 117.2512621 277.91669525 122.53515625 273.0859375 C124.12325231 271.63615152 125.72343169 270.19939687 127.33984375 268.78125 C133.5455619 263.32396017 139.37542763 257.5347207 145.16259766 251.64038086 C149.03734992 247.71481058 153.01855236 243.99988676 157.19824219 240.40087891 C159.74025214 238.18988082 162.16593881 235.86192129 164.609375 233.54296875 C186.8420928 212.91560575 186.8420928 212.91560575 201.109375 212.29296875 C207.56464376 212.54724236 212.187319 213.98347062 216.83203125 218.546875 C223.14830974 225.69935111 222.48024439 232.60439224 222.046875 241.79296875 C221.70715541 245.67205402 221.22871718 249.53381939 220.76293945 253.39941406 C219.73256137 262.52323078 219.87298898 271.62531134 220.046875 280.79296875 C233.12076981 278.48403063 240.39252458 270.27374892 248.046875 259.79296875 C257.81987203 245.72054369 266.04491217 230.62920084 273.00390625 214.9855957 C274.85510404 210.91077754 276.45826369 207.64188671 280.046875 204.79296875 C284.48336489 203.28052901 287.57712126 203.9399771 291.87109375 205.7109375 C294.23221131 206.8851378 296.39047435 208.24389819 298.609375 209.66796875 C319.8572211 222.76106046 349.19079844 224.06905795 373.046875 219.79296875 C374.23539063 219.58285156 375.42390625 219.37273437 376.6484375 219.15625 C385.05400037 217.2458948 390.35741468 213.54407457 396.5625 207.87109375 C414.00288943 192.05118185 437.25890205 177.90905515 461.453125 178.5546875 C469.77327183 179.31903834 475.61862715 183.56497904 481.046875 189.79296875 C485.69016879 196.72453873 488.44031704 203.37940098 487.046875 211.79296875 C486.046875 212.79296875 486.046875 212.79296875 482.296875 213.16796875 C479.00687358 213.10368808 478.22291966 212.92607569 475.484375 210.85546875 C474.08918942 209.10254328 472.71982849 207.32655134 471.43359375 205.4921875 C470.85222656 204.68394531 470.27085937 203.87570312 469.671875 203.04296875 C469.14851562 202.264375 468.62515625 201.48578125 468.0859375 200.68359375 C465.16690143 197.97705456 462.97585939 197.91836187 459.046875 197.79296875 C438.35530151 202.25988412 417.6416732 217.04027455 402.046875 230.79296875 C401.35335937 231.40269531 400.65984375 232.01242187 399.9453125 232.640625 C391.65860366 240.41560481 384.62021802 250.39900735 380.046875 260.79296875 C398.28047815 257.30270808 414.69680462 247.92207935 431.2109375 239.8046875 C432.1014682 239.36770538 432.9919989 238.93072327 433.90951538 238.48049927 C438.34701386 236.30248228 442.7801154 234.11647086 447.20458984 231.91210938 C455.31631941 227.89353563 463.45459472 224.06318283 471.875 220.73046875 C472.59985596 220.43955856 473.32471191 220.14864838 474.0715332 219.84892273 C480.53632968 217.37036851 487.46756673 215.79889617 494.07421875 218.67578125 C495.93109807 219.85544576 497.49176089 221.23785464 499.046875 222.79296875 C500.3525574 230.26345542 498.28011787 236.9804644 496.109375 244.04296875 C491.45633358 258.84172598 491.45633358 258.84172598 493.171875 273.91796875 C498.77371621 282.5074586 506.11604862 286.0681104 515.83203125 288.25390625 C571.94068367 297.66216146 648.13540118 254.79189357 697.98223877 232.70709229 C699.95965712 231.83158472 701.93832772 230.95898088 703.91748047 230.08740234 C727.15647556 219.84554628 750.26690448 209.24785677 772.9609375 197.84375 C773.78099777 197.43173843 774.60105804 197.01972687 775.44596863 196.5952301 C779.42315776 194.59365752 783.3948077 192.58188649 787.35961914 190.5559082 C788.8009354 189.82501557 790.24225985 189.09413909 791.68359375 188.36328125 C792.64859299 187.8643914 792.64859299 187.8643914 793.63308716 187.35542297 C799.7113732 184.2835628 805.47606954 182.50541497 812.296875 182.41796875 C813.31265625 182.38960937 814.3284375 182.36125 815.375 182.33203125 C818.046875 182.79296875 818.046875 182.79296875 819.69213867 184.5065918 C823.38974473 190.74701002 820.93671399 199.53712057 819.26806641 206.1796875 C819.00944824 207.14519531 818.75083008 208.11070312 818.484375 209.10546875 C818.22060059 210.12640625 817.95682617 211.14734375 817.68505859 212.19921875 C814.87532977 222.85489005 811.53739002 233.34321995 808.046875 243.79296875 C817.15609964 241.15934938 825.44101199 236.89816195 833.921875 232.73046875 C835.50575992 231.95755984 837.08974486 231.18485585 838.67382812 230.41235352 C846.70507977 226.48449669 854.67934559 222.47898644 862.546875 218.23046875 C894.35035943 201.05694795 894.35035943 201.05694795 911.59765625 205.44140625 C917.89968912 208.30485419 921.78126839 213.30539713 924.859375 219.35546875 C926.69164101 224.65939666 927.16794753 229.5266649 927.07421875 235.1171875 C927.05584961 236.90866211 927.05584961 236.90866211 927.03710938 238.73632812 C927.00222733 241.21295303 926.96323095 243.68952375 926.91992188 246.16601562 C926.74265663 259.00935543 926.74265663 259.00935543 930.796875 270.98046875 C939.86095494 276.03543641 951.08610178 272.33852018 960.47314453 269.74853516 C963.81757255 268.78926971 967.11925295 267.76836697 970.4140625 266.6484375 C974.44168769 265.3397581 977.55176302 265.08475781 981.421875 266.91796875 C983.046875 268.79296875 983.046875 268.79296875 983.734375 271.60546875 C982.93757867 275.2997063 981.64645648 276.93495645 978.6640625 279.22265625 C963.17313842 288.5172107 939.67164187 296.62076398 921.5 293.33203125 C914.47160838 291.52168795 909.53157692 288.67861962 905.578125 282.49609375 C897.87434826 268.07390706 898.86246979 251.13879043 899.08349609 235.2175293 C899.27695351 230.87050104 899.27695351 230.87050104 898.046875 226.79296875 C890.25331377 227.15415336 884.64926152 229.48600908 877.734375 232.98046875 C876.65768555 233.51003174 875.58099609 234.03959473 874.47167969 234.58520508 C868.60382262 237.48076231 862.76692967 240.4377584 856.92578125 243.38671875 C854.54976639 244.58520501 852.17346523 245.78312384 849.796875 246.98046875 C848.62970947 247.56884521 847.46254395 248.15722168 846.26000977 248.76342773 C809.13423239 267.3380149 809.13423239 267.3380149 798.04296875 263.84765625 C787.55762449 259.75644217 787.55762449 259.75644217 784.046875 254.79296875 C782.29446197 249.03147407 783.93391143 244.37541289 785.57421875 238.80078125 C785.84198624 237.854841 786.10975372 236.90890076 786.38563538 235.93429565 C787.24025299 232.92539131 788.11203052 229.92177602 788.984375 226.91796875 C789.56819756 224.87402327 790.15089282 222.82975544 790.73242188 220.78515625 C792.15753197 215.78395153 793.59674792 210.78697341 795.046875 205.79296875 C794.42800415 206.13306976 793.8091333 206.47317078 793.17150879 206.82357788 C732.0591167 240.39426332 668.77053152 269.4301551 603.046875 292.79296875 C602.38578735 293.02822266 601.72469971 293.26347656 601.0435791 293.50585938 C525.52512022 320.30047472 525.52512022 320.30047472 494.47705078 306.53613281 C483.78188823 301.39250311 476.16032362 294.00996319 472.046875 282.79296875 C470.45438026 277.35054814 469.72190215 272.41702566 469.796875 266.73046875 C469.80074219 266.00674072 469.80460938 265.2830127 469.80859375 264.53735352 C469.9235953 257.1956229 470.86637695 250.03405948 472.046875 242.79296875 C458.67484864 246.86076164 446.79327902 253.50626557 434.55517578 260.14453125 C391.29328708 283.55870314 391.29328708 283.55870314 375.203125 280.19921875 C368.48588771 277.90745544 363.5843451 275.14407019 360.046875 268.79296875 C359.49526671 265.48331902 359.45172442 263.94890487 360.046875 260.79296875 C360.21832031 259.86226562 360.38976562 258.9315625 360.56640625 257.97265625 C362.08807384 251.0139191 364.57479093 244.99605966 368.046875 238.79296875 C366.92732422 239.03273438 366.92732422 239.03273438 365.78515625 239.27734375 C340.59009455 242.75252467 316.10051819 237.97845876 293.77734375 226.1484375 C291.2563737 224.64475244 291.2563737 224.64475244 289.046875 224.79296875 C288.80155029 225.30456543 288.55622559 225.81616211 288.3034668 226.34326172 C279.81209893 243.94554774 270.57363042 260.71704847 258.046875 275.79296875 C257.24636719 276.75847656 256.44585938 277.72398437 255.62109375 278.71875 C247.26886189 288.34979248 236.61705406 298.71580574 223.4375 300.19921875 C216.6434651 300.46775768 211.07962915 300.47837651 205.55859375 296.21484375 C200.42120639 291.38277915 198.04776367 286.65248522 197.74609375 279.5703125 C197.72732224 277.95713573 197.72425163 276.34372297 197.734375 274.73046875 C197.73630859 273.4312146 197.73630859 273.4312146 197.73828125 272.10571289 C197.84544771 264.64625757 198.79729381 257.42222805 199.97265625 250.06542969 C200.94224161 243.93326842 201.43998013 238.00985363 201.046875 231.79296875 C194.93595235 232.07200631 192.23838604 234.82844354 188.109375 238.91796875 C187.46476318 239.53744385 186.82015137 240.15691895 186.15600586 240.79516602 C180.76073939 246.00743132 175.47417262 251.33348649 170.19506836 256.66308594 C166.54491166 260.33891726 162.82752272 263.84826613 158.8671875 267.19140625 C156.66001064 269.13334297 154.61149886 271.20034999 152.546875 273.29296875 C149.23491703 276.64442196 145.83640924 279.79705803 142.2578125 282.859375 C140.08534108 284.75932792 137.97717061 286.718869 135.87231445 288.69311523 C122.41681565 301.25404158 108.6114635 313.30005541 89.3046875 313.0625 C82.69118349 312.5153396 78.75938084 309.81862452 74.234375 305.10546875 C68.80203956 298.42332492 67.71219901 291.17605122 67.046875 282.79296875 C66.386875 283.45296875 65.726875 284.11296875 65.046875 284.79296875 C64.58667969 285.24929688 64.12648438 285.705625 63.65234375 286.17578125 C62.51441024 287.32202084 61.39358905 288.48536495 60.28515625 289.66015625 C41.49376539 309.25199175 13.81343461 318.05633588 -12.81640625 318.91796875 C-51.38639089 319.67128876 -81.84076415 303.4334628 -112.42236328 281.59863281 C-119.89064659 276.27011426 -127.40796367 271.01194312 -134.953125 265.79296875 C-135.9342627 265.11347168 -136.91540039 264.43397461 -137.92626953 263.73388672 C-166.87736827 243.35243739 -166.87736827 243.35243739 -201.23095703 240.19873047 C-206.5064283 241.25673762 -211.73245101 242.493601 -216.953125 243.79296875 C-217.34631747 224.81625829 -209.91546578 204.58767751 -196.8671875 190.6484375 C-177.59287878 171.96415864 -151.33500359 162.48046875 -124.72265625 162.48046875 C-88.90071114 163.08022734 -61.38515443 184.39807992 -33.640625 204.54296875 C-25.87860615 210.17318942 -18.03472862 215.6307961 -9.953125 220.79296875 C-9.025 221.40140625 -8.096875 222.00984375 -7.140625 222.63671875 C3.14817893 228.88349257 15.32757699 231.12764204 27.1328125 228.7109375 C33.23161222 226.78973384 38.23110603 223.77880633 41.609375 218.23046875 C44.6387485 210.91529955 43.92214765 202.54460546 41.484375 195.16796875 C29.34366939 165.87745522 0.6454291 148.51475349 -24.45703125 131.5234375 C-86.29557206 89.63915134 -86.29557206 89.63915134 -94.2578125 57.12109375 C-97.28944269 40.73013155 -95.75850534 24.19153852 -86.5703125 10.06640625 C-77.64030526 -2.48737204 -64.94418783 -10.24725317 -49.703125 -12.890625 C-31.69197328 -14.96293081 -14.54790108 -10.8724393 0 0 Z " fill="#CA7D8D" transform="translate(366.953125,597.20703125)"/>
</svg>
